<?xml version="1.0" encoding="utf-8"?>
<!-- Generator: Adobe Illustrator 15.0.0, SVG Export Plug-In . SVG Version: 6.00 Build 0)  -->
<!DOCTYPE svg PUBLIC "-//W3C//DTD SVG 1.1//EN" "http://www.w3.org/Graphics/SVG/1.1/DTD/svg11.dtd">
<svg version="1.1"
	 id="svg2" inkscape:version="0.48.4 r9939" sodipodi:version="0.32" sodipodi:docname="Parc_naturel_régional_des_Boucles_de_la_Seine_Normande.svg" xmlns:dc="http://purl.org/dc/elements/1.1/" xmlns:cc="http://creativecommons.org/ns#" xmlns:rdf="http://www.w3.org/1999/02/22-rdf-syntax-ns#" xmlns:svg="http://www.w3.org/2000/svg" xmlns:sodipodi="http://sodipodi.sourceforge.net/DTD/sodipodi-0.dtd" xmlns:inkscape="http://www.inkscape.org/namespaces/inkscape"
	 xmlns="http://www.w3.org/2000/svg" xmlns:xlink="http://www.w3.org/1999/xlink" x="0px" y="0px" width="170px" height="279px"
	 viewBox="0 0 170 279" enable-background="new 0 0 170 279" xml:space="preserve">
<ellipse fill="#FFFFFF" cx="85.064" cy="139.308" rx="84.063" ry="138.665"/>
<sodipodi:namedview  id="base" inkscape:cy="211.91038" inkscape:cx="56.174804" inkscape:zoom="1.0711612" pagecolor="#ffffff" showgrid="false" bordercolor="#666666" borderopacity="1.0" inkscape:window-maximized="1" inkscape:current-layer="g9217" inkscape:window-y="-8" inkscape:window-x="-8" inkscape:pageshadow="2" inkscape:window-width="1600" inkscape:pageopacity="0.0" inkscape:window-height="838">
	</sodipodi:namedview>
<path fill="#00936F" d="M85.082,0.643C38.645,0.643,1,62.732,1,139.325c0,75.753,36.833,137.316,82.567,138.649
	c-14.994-1.77-23.826-17.043-25.281-21.013l-0.645-1.699c-0.029-0.056-2.706-3.793-3.018-4.229c0.025-0.191,0.728-5.775,0.728-5.775
	c-0.003-0.1-0.015-0.24-2.39-6.063c0.125-0.212,3.57-6.206,3.57-6.206s-2.315-5.235-2.438-5.513
	c0.202-0.241,4.717-5.728,4.717-5.728s-1.881-5.604-1.981-5.907c0.239-0.23,5.155-4.837,5.155-4.837s-1.063-6.679-1.103-6.96
	c2.331-1.933,5.084-4.26,5.217-4.591c0.015-0.084,0.176-5.895,0.191-6.479c0.515-0.479,4.297-4.075,4.276-6.805
	c-0.004-0.571-0.177-1.104-0.581-1.555c-0.475-0.539-1.096-0.807-1.792-0.769c-0.882,0.046-1.834,0.614-2.416,1.436
	c-0.617,0.881-1.264,2.468-1.838,3.867l-0.768,1.819l-0.327,1.061c-0.379,1.396-1.089,3.999-2.251,4.172
	c-2.661,0.39-10.511-13.507-12.151-17.783c-3.287-8.574-4.119-13.066-2.202-21.182c0.768-3.262,4.353-8.501,7.236-10.58
	c1.139-0.821,4.345,0.469,6.261,1.236l1.669,0.607l0.739-0.17c0.714-0.469,1.286-1.653,1.449-3.028
	c0.073-1.205-0.203-2.919-1.931-4.33c-1.121-0.908-3.913-1.412-5.82-1.308c-0.681,0.016-2.64,0.106-6.611,0.593
	c0.011,0-0.147,0.006-0.147,0.006c-0.073-0.044-0.161-0.199-0.161-0.199c0.044-0.185,0.154-0.268,0.283-0.296
	c0.497-0.096,5.761-2.087,8.909-4.744c0.86-0.682,2.11-2.332,2.033-3.689c-0.022-0.401-0.39-3.913-5.758-4.722
	c-0.022-0.003-3.463-0.279-3.463-0.279c-0.011,0-2.552,0.045-2.552,0.045c-0.944,0.053-1.842,0.107-3.235-0.004
	c-0.188-0.041-0.268-0.137-0.276-0.24c0.051-0.187,0.18-0.3,0.357-0.283c0.004,0,0.404,0.049,0.404,0.049
	c1.813-0.066,7.67-1.375,10.982-3.625c0.835-0.466,1.464-1.506,1.511-2.515c0.034-0.654-0.146-1.567-1.172-2.232
	c0.044,0.037-0.173-0.183-0.173-0.183c-0.083-0.092-1.617-1.016-1.617-1.016c-2.479-0.837-6.614-3.152-8.945-5
	c-0.28-0.178-0.703-0.47-0.714-0.688l0.088-0.125l0.151-0.097l0.3,0.104c0,0,0.159,0.066,0.185,0.077
	c0.007,0.018,0.18,0.162,0.18,0.162l0.107,0.08c1.617,1.003,4.235,1.664,7.798,1.975l0.482,0.043
	c1.934,0.181,3.765,0.351,4.959-1.106c1.342-1.133,1.589-2.11,1.581-3.424c-0.004-0.372-0.029-0.766-0.055-1.199l-0.011-0.221
	c-0.045-0.733-0.284-1.44-0.706-2.107c-1.419-2.457-6.769-6.601-9.681-8.257c-0.015-0.008-1.122-0.582-1.122-0.582
	c-0.731-0.404-1.136-0.683-1.268-0.876c-0.036-0.037-0.073-0.159-0.073-0.159v-0.004c0-0.119,0.184-0.188,0.242-0.208
	c0,0.003,0.136,0.045,0.136,0.045c0.106,0.044,0.228,0.064,0.228,0.064c0.074,0.014,1.89,1.092,1.89,1.092
	c0.073,0.038,0.291,0.162,0.291,0.162c0.007,0.004,0.831,0.427,0.831,0.427c3.025,1.558,9.328,4.808,13.776,3.311
	c1.736-0.585,3.015-1.839,3.801-3.727c1.119-4.054-3.478-7.386-5.944-9.18l-0.968-0.714c-1.275-1.005-2.253-1.947-2.338-2.166
	c0-0.073,0.117-0.156,0.229-0.196c0.117-0.042,0.301-0.008,0.408,0.09c0.095,0.08,9.471,8.249,13.71,7.882
	c1.25,0.271,3.125-0.275,4.47-1.336c1.254-0.989,1.935-2.316,1.92-3.762c-0.004-0.083-0.004-0.165-0.011-0.251
	c-0.342-5.408-3.817-8.971-10.292-10.625c0.29-0.151,0.625-0.264,1.077-0.292c1.997-0.138,5.122,1.02,6.38,2.067
	c1.437,1.059,2.326,2.376,3.187,3.655c1.28,1.891,2.596,3.852,5.629,4.682c2.453,0.791,4.377,0.364,5.699-1.268
	c1.298-1.602,1.246-7.2,1.229-9.046l-0.004-0.189c-0.019-2.053,0.529-5.233,0.996-6.498c0.081-0.216,0.261-0.324,0.299-0.338
	c0.18,0.245,0.121,0.669,0.076,0.811c-1.004,5.973,0.034,9.977,3.063,11.929c0.019,0.008,0.438,0.256,0.438,0.256
	c1.025,0.614,2.735,1.643,5.444,1.622c1.261-0.152,2.938-0.661,3.956-2.228l0.144-0.215c0.703-1.04,1.882-2.786,0.019-6.734
	c-0.334-0.7-0.968-1.35-1.475-1.87c-0.323-0.332-0.765-0.783-0.761-0.931c0.431-0.037,3.563,1.747,5.412,7.881l0.048,0.173
	l0.19,0.028c0.236,0.028,0.236,0.028,0.607-0.734l0.268-0.527c0.692-1.471,1.864-2.822,2.736-3.703
	c-0.894,1.23-2.229,3.285-2.21,5.621c0.007,1.086,0.32,2.227,1.121,3.346c0.82,1.157,2.011,1.875,3.739,2.27
	c1.555,0.225,2.85-0.204,3.754-1.233c0.978-1.115,1.397-2.787,1.386-4.368c-0.007-0.942-0.176-1.846-0.463-2.587
	c0.323,0.389,1.379,1.953,1.396,4.458c0.004,0.568-0.043,1.174-0.172,1.82c0.004,0.021,0.007,0.044,0.004,0.076
	c0.003,0.433-0.17,1.939-0.541,2.858l-0.301,0.766l0.742-0.435c0.981-0.575,1.794-0.95,2.511-1.239
	c-1.596,0.932-3.46,2.329-4.18,4.126c-0.295,0.479-0.438,1.061-0.435,1.733c0.004,0.544,0.11,1.147,0.313,1.801
	c0.401,0.993,1.056,1.734,1.941,2.216c1.063,0.579,1.769,0.843,2.875,0.792l2.976-0.242c3.616-0.567,6.927-0.387,9.242-0.102
	c-1.864,0.051-4.113,0.236-5.823,0.805c-1.875,0.622-4.248,1.531-6.027,3.048l-0.583,0.497l0.79-0.017
	c0.547-0.011,0.819-0.134,1.368-0.376c0.66-0.292,1.772-0.784,4.399-1.574c6.733-2.025,12.656-1.219,16.49-0.176
	c-2.209-0.149-5.459-0.262-8.185,0.093c-0.65,0.086-6.401,0.899-8.455,3.405c-0.851,1.037-1.372,2.469-1.829,3.733
	c-0.314,0.877-0.608,1.707-0.959,2.202c-0.193,0.275-0.254,0.599-0.254,0.954c0.005,0.32,0.061,0.671,0.118,1.024
	c0.066,0.409,0.136,0.83,0.145,1.261c0.004,0.75-0.191,1.519-0.96,2.246c-0.162,0.155-0.228,0.372-0.228,0.613
	c0.007,0.726,0.595,1.688,0.978,2.253c-0.601,0.193-1.738,0.628-2.279,1.357c-0.435,0.582-0.618,1.611-0.607,2.697
	c0.007,1.079,0.206,2.218,0.544,3.036c0.769,1.842,3.419,4.974,4.52,6.235c0.791,0.898,2.157,1.953,3.471,2.979
	c1.153,0.891,2.246,1.739,2.683,2.288c0.202,0.253,0.307,0.55,0.314,0.888c0,0.12-0.016,0.241-0.034,0.369
	c-0.158,0.881-0.831,1.719-1.415,2.091c-0.967,0.624-1.319,1.082-1.769,1.657l-0.166,0.216c-0.431,0.557-3.114,1.179-4.275,0.707
	c-1.154-0.477-3.651-2.015-4.5-3.393l-2.589-3.679l-1.261-1.708c-0.695-0.979-1.471-1.713-2.291-2.491l-1.842-1.88
	c-1.364-1.599-8.806-7.693-10.247-7.808c-0.926-0.078-2.117-0.893-3.177-1.611l-0.683-0.465c0-0.066-2.982-5.415-2.982-5.419
	l-0.647-1.378l-0.279,0.179l-0.643,0.346l3.224,7.062c0.051,0.095,4.154,7.402,5.493,11.153c0.003,0,0.481,1.072,0.481,1.072
	c6.379,13.677,7.864,26.084,4.411,36.861c-2.448,7.65-9.672,12.73-14.945,16.443l-1.782,1.263
	c-3.016,3.673-12.458,23.176-16.612,32.586l-0.327,0.729c-5.692,12.864-16.292,36.814,1.18,49.559
	c4.232,3.092,9.361,3.717,13.717,1.665c3.832-1.809,6.122-5.31,5.979-9.135c-0.121-3.145-2.908-5.437-5.609-6.078
	c-2.567-0.606-4.88,0.226-6.17,2.225c-0.695,1.072-0.739,2.344-0.133,3.497c0.629,1.195,1.847,2.007,3.247,2.162
	c1.434,0.161,2.059-0.399,2.298-0.748c0.375-0.533,0.36-1.255-0.049-1.876c-0.547-0.853-2.088-1.354-2.621-1.347
	c-0.008-0.105,0.783-0.748,2.298-0.628c0.887,0.071,1.776,0.571,2.39,1.337c0.651,0.821,0.9,1.833,0.685,2.781
	c-0.431,1.884-1.738,2.807-2.766,3.247c-1.838,0.798-4.181,0.688-6.117-0.269c-3.416-1.685-4.68-5.933-3.716-8.849
	c1.4-4.24,5.558-6.685,10.591-6.226c4.949,0.462,10.589,3.952,11.266,10.537c0.464,4.514-1.073,8.955-4.213,12.178
	c-2.339,2.4-5.457,4.058-9.167,4.946c42.719-6.593,76.155-65.886,76.155-138.06C169.167,62.732,131.521,0.643,85.082,0.643
	 M84.736,34.953c0.063,0,0.118,0.048,0.165,0.087l0.123-0.087l-0.081,0.121c-0.012-0.006-0.026-0.021-0.042-0.034l-0.165,0.112
	V34.953z M72.779,26.358c0.052,0.124,0.008,0.221-0.076,0.275c0.028,0.223,0.319,0.28,0.161,0.522l-0.368-0.477
	c0.08,0.014,0.15-0.007,0.207-0.045C72.695,26.565,72.714,26.479,72.779,26.358 M71.993,26.001l0.375,0.079l0.129,0.279
	L71.993,26.001z M72.368,29.225v0.397c-0.085-0.039-0.125,0.041-0.165,0.079l-0.118-0.728c-0.03-0.017-0.056-0.027-0.092-0.027
	h0.084l0.008,0.027C72.194,29.025,72.268,29.159,72.368,29.225 M71.871,25.326c0.081,0.04,0.122,0.119,0.206,0.078
	c0.133-0.046,0.159-0.1,0.155-0.162l-0.155-0.314c0.052,0.118,0.147,0.225,0.155,0.314l0.136,0.282l0.129-0.121l-0.294,0.32
	C72.203,25.208,71.706,25.922,71.871,25.326 M71.666,26.943c-0.029,0.039-0.063,0.069-0.085,0.094l-0.025-0.028
	c-0.092,0.043-0.162,0.032-0.184-0.175l0.184,0.175C71.587,26.993,71.625,26.969,71.666,26.943c0.019-0.029,0.04-0.058,0.04-0.109
	h0.166C71.812,26.834,71.739,26.889,71.666,26.943 M71.871,31.055c0.081,0.397-0.5,0.278-0.375,0.397
	C71.497,31.213,71.581,30.936,71.871,31.055 M63.242,32.489v0.277h-0.128L63.242,32.489z M62.739,35.152l0.084,0.279
	c-0.25-0.041-0.497-0.041-0.581-0.358C62.368,35.271,62.533,35.271,62.739,35.152 M61.826,36.706h0.21l-0.294,0.278L61.826,36.706z
	 M58.337,37.341c0.037,0.183,0.011,0.342,0,0.482C58.323,37.64,58.308,37.468,58.337,37.341 M58.337,38.044
	c0.022,0.138,0.092,0.257,0.294,0.372l0.125-0.599c0.084,0.202-0.25,0.838,0.291,0.878l0.081,0.079l-0.287,0.199
	c0.538,0.04,0.04,0.397,0.207,0.596c-0.372-0.319-0.416-0.835-1.118-0.795c-0.169,0.08-0.041,0.279-0.088,0.397l-0.206-0.676
	c0.169,0.042,0.294,0.121,0.5,0.121C58.301,38.47,58.337,38.261,58.337,38.044 M59.419,40.208c-0.082,0.058-0.132,0.136-0.147,0.219
	l-0.144-0.578L59.419,40.208z M58.337,39.648l-0.203-0.08c0.372-0.158-0.084-0.319,0.417-0.398L58.337,39.648z M58.426,40.125
	l-0.089,0.282l-0.078-0.478L58.426,40.125z M59.047,40.683c-0.167,0.24-0.496,0.04-0.496-0.159L59.047,40.683z M57.76,36.979
	c-0.044,0.114,0,0.245,0,0.362c-0.084-0.04-0.125-0.121-0.209-0.08L57.76,36.979z M57.76,38.139l-0.622,0.276
	c0.041-0.118,0.081-0.276,0.206-0.276c0.25-0.244-0.331-0.164,0.085-0.401C57.635,37.816,57.676,37.94,57.76,38.139 M56.639,35.432
	c-0.169,0.08-0.084,0.28-0.084,0.4h-0.206c0.081-0.162-0.082-0.279-0.21-0.4c-0.331,0.52-0.121-0.041-0.496,0.121l0.625-0.479
	C56.138,35.511,56.808,35.353,56.639,35.432 M55.768,36.387c-0.327,0.155-0.191-0.104-0.243-0.259L55.768,36.387z M53.363,27.911
	l0.205,0.201l-0.205,0.755V27.911z M53.363,29.066c0.662-0.199-0.045,0.715,0.577,0.833l-0.372,0.2l-0.5-1.033l0.209,0.278
	C53.403,29.304,53.363,29.146,53.363,29.066 M52.94,27.233c0.063,0.107,0.276,0.306,0.214,0.482
	C52.955,27.226,52.911,27.684,52.94,27.233 M51.065,28.058c0.706,0.222,0.724-0.332,1.216-0.625l0.166,0.282
	c0.081-0.043,0.125-0.083,0.125-0.202c0.166,0.043-0.416,0.795,0.206,0.478v-0.199c0.085,0.079,0.125,0.237,0.291,0.199l0.085-0.08
	c-0.085,0.118-0.291,0.281-0.085,0.36c-0.125,0.038-0.372-0.159-0.621-0.159l-0.081,1.312l-0.295-0.357
	c-0.165,0.038-0.08,0.237-0.121,0.357v-0.357c0.166,0,0.331-0.041,0.331-0.199V28.59c-0.121-0.196-0.279-0.017-0.404,0.072
	c0.073,0.076,0.095,0.142-0.011,0.006c0.004-0.003,0.007-0.006,0.011-0.006c-0.07-0.083-0.195-0.175-0.302-0.072v-0.199
	C51.216,28.735,51.242,28.246,51.065,28.058c-0.059-0.021-0.122-0.035-0.192-0.067C50.958,27.977,51.021,28.009,51.065,28.058
	 M51.583,29.269c-0.029-0.023-0.069-0.044-0.133-0.044l-0.081,0.12l-0.205-0.596C51.73,28.649,51.55,29.092,51.583,29.269
	 M51.286,65.03v-0.554l0.165,0.554H51.286z M62.585,88.598c0.966-0.44,1.25-0.505,1.25-0.505l1.301,1.068
	c0,0-1.393-0.034-2.283,0.393c-0.982,0.469-1.28,1.051-1.641,0.599C60.856,89.706,61.846,88.938,62.585,88.598 M64.793,97.767
	c1.28-0.101,2.956-0.652,4.184-1.496c-0.712,1.637-1.845,2.754-3.368,3.27c-1.474,0.502-3.181,0.427-4.905,0.062
	c-4.639-2.914-6.6-5.614-5.552-6.08C55.69,93.285,58.437,98.276,64.793,97.767 M56.267,59.425c0.038,0.118,0.163,0.075,0.288,0.075
	c-0.125,0.042-0.125,0.202-0.125,0.28L56.267,59.425z M57.635,57.316c-0.04-0.124-0.206-0.081-0.291-0.081l0.497-0.397
	L57.635,57.316z M57.841,58.826H57.76v-0.359h0.081V58.826z M77.371,88.537c0.717,0.144,1.637,0.259,2.596,0.349
	c-0.33,0.567-0.768,1.009-1.172,1.332c-1.354,1.076-3.06,1.431-4.048,1.221c-0.169,0.015-0.353,0.003-0.541-0.011
	c-1.577-0.126-3.766-1.227-5.934-2.613c-0.725-0.458-1.441-0.949-2.141-1.444c0.721-0.104,3.085-0.421,4.457-0.259
	C72.779,87.367,74.941,88.035,77.371,88.537 M69.508,60.857h0.08v0.476h-0.08V60.857z M80.75,65.233l-0.029-0.055
	c-0.209,0.213-0.155-0.775-0.552-0.625c-0.622-0.041,0.122-0.637-0.622-0.476l0.412-0.279l0.762,1.379
	c0.008-0.011,0.019-0.011,0.029-0.025V65.233z M79.258,49.875l0.08-0.119l-0.036,0.148c0.063,0.058,0.176,0.051,0.246,0.051v0.198
	l-0.29-0.08l0.044-0.169C79.288,49.894,79.265,49.897,79.258,49.875 M79.338,63.8h0.209l-0.375,0.279L79.338,63.8z M79.959,62.564
	c0.375,0.203,0.497,0.362,0.707,0.203v0.196C80.456,62.767,79.959,62.963,79.959,62.564 M80.456,63.721l-0.122-0.6l0.332,0.479
	l0.084-0.079l0.085,0.079L80.456,63.721z M81.247,50.431l-0.081-0.556l-0.71,0.08l-0.122-0.557c-0.125-0.042-0.165,0.12-0.29,0.2
	V48.64c-0.526-0.036-0.529,0.34-0.89,0.441l0.019,0.116l-0.125-0.081c0.048-0.004,0.071-0.025,0.107-0.035l-0.107-0.639l-0.29,0.357
	c-0.291-0.08-0.25-0.676-0.581-0.357c0.272,0.26,0.162,0.694,0.418,0.917c0.03,0.014,0.056,0.014,0.082,0.039
	c0,0.007-0.003,0.01-0.003,0.018c0.047,0.026,0.103,0.047,0.168,0.062c-0.044,0.04-0.125,0.12-0.084,0.199h-0.291
	c0.077-0.076,0.224-0.151,0.206-0.261c-0.029-0.018-0.051-0.035-0.078-0.057c-0.507-0.289-0.918,0.899-1.04-0.083h0.125
	c-0.084-0.557-0.125-0.237-0.125-0.833l0.291,0.198c0.412-0.356,0.125-0.477,0-0.873h-0.084v0.194l-0.207-0.194l-0.29,0.277
	l0.08,0.119c-0.122,0.12-0.334,0.397-0.786,0.279c0.081-0.24,0.746,0.159,0.706-0.398c-0.294-0.039-0.585-0.198-0.998,0.119
	l0.081-0.119c-0.29-0.242-0.827,0.478-1.077-0.198c-0.084,0.115-0.291,0.239-0.291,0.397c0.25,0.199,0.335-0.041,0.582,0.199
	c-0.375-0.04-1.041,0.118-1.203-0.481c0-0.159-0.169-0.273-0.29-0.393c-0.084,0.119-0.416,0.119-0.291,0.393l0.082,0.083h-0.166
	c-0.041-0.198,0.04-0.438-0.125-0.559c-0.121,0.159-0.041,0.678-0.497,0.476c0.581-0.393-0.294-0.833-0.209-1.072l-0.165,0.679
	c0-0.2-0.994,0.119-1.203-0.679c-0.372-0.041-0.125,0.555-0.209,0.479l-0.497-0.082c0.206-0.159,0.54,0.082,0.412-0.397
	c-0.621-0.279-0.577,0.957-1.118,0.397c0.041-0.239,0-0.556-0.294-0.556c-0.162,0.397-0.621-0.238-0.574,0.479l0.292,0.159
	l0.205-0.28l0.166,0.198l-0.371,0.282l-0.21-0.2c-0.066,0.445-0.474,0.463-0.57,0.777c0.026,0.008,0.037,0.011,0.07,0.018
	c-0.022,0.025-0.052,0.055-0.1,0.073c-0.003,0.058,0,0.125,0.015,0.206h-0.122v-0.199c0.052,0.014,0.082,0.003,0.107-0.006
	c0.004-0.037,0.022-0.063,0.029-0.091c-0.533-0.109,0.284-0.191-0.426-0.378c-0.224,0.146-0.195,0.283-0.139,0.435
	c-0.034-0.031-0.074-0.057-0.15-0.039c-0.376,0.12-0.126,0.477-0.207,0.754l-0.085-0.199c-0.5,0.397-0.085,1.236-0.209,1.832
	c0.084,0,0.125-0.081,0.209-0.12l0.165,0.199c-0.125,0.556-0.25,1.472,0.203,1.83c0.048,0.08-0.036,0.12-0.076,0.159
	c0.04,0.12,0.205,0.12,0.29,0.12c-0.04,0.198-0.375-0.159-0.496,0.198v0.281c-0.17,0-0.21-0.158-0.419-0.118
	c-0.04,0.077-0.125,0.118-0.077,0.194c0.342,0.069,0.739,0.265,0.912,0.014c0-0.004-0.004-0.008-0.004-0.014h0.015
	c0.034-0.051,0.059-0.111,0.07-0.194c0.041,0.118,0.206,0.118,0.29,0.118l-0.36,0.077c-0.004,0.003-0.008,0.006-0.011,0.014
	c0.044,0.151,0.117,0.271,0.081,0.465h0.29c0,0.121,0.082,0.319-0.084,0.398l0.206,0.198c0.174-0.118,0.045-0.317,0.085-0.476
	c0.125-0.08-0.125,0.317,0.206,0.277l0.088,0.08l0.125-0.08c-0.168,0.118,0.081,0.318-0.125,0.477h0.496
	c0,0.079,0,0.237,0.125,0.282c0.078,0.035,0.247-0.08,0.166-0.203v-0.278c0.206,0.041-0.166,0.516,0.331,0.401
	c0.291-0.08,0.166,0,0.581,0.08l-0.581,0.194c0-0.118-0.084-0.159-0.125-0.194c-0.537,0.353,0.25,0.396,0,0.75
	c0.25-0.116,0.541,0.521,0.621,0l-0.331-0.274c0.125-0.4,0.166,0,0.416,0l0.081,0.557c0.253,0.04,0.955,0.04,0.915-0.478
	c-0.088-0.166-0.1-0.364-0.14-0.555c0.019,0.024,0.033,0.059,0.059,0.076c-0.044,0.162,0.166,0.241,0.081,0.4h0.496l-0.412,0.196
	c0.206,0.32,0.452,0.4,0.206,0.758l-0.206,0.277l0.497,0.282v-0.282l0.625,0.481c0.081-0.162,0.247-0.083,0.372-0.083l0.125,0.361
	l-0.497-0.079c-0.128,0.356-0.293,0.634,0.081,0.952l0.291-0.197c0.04,0.119-0.04,0.317,0.125,0.396
	c0.081-0.119,0.246-0.237,0.206-0.396c0.166,0.159,0,0.476,0.291,0.596l0.29-0.319c-0.58,0.119,0-0.634-0.58-0.555l0.166-0.557
	c0.831,0.278-0.291,0.637,0.5,0.954c0.122,0.4-0.665,0.478-0.085,0.833c0.292,0.159-0.661-0.355-0.496,0.203
	c0.496,0.159,0.082,0.275,0.207,0.555c0.456,0.199,0.496,0.239,0.706,0.675l0.496-0.555c-0.953,0.119,0.25-0.516-0.331-0.878
	l-0.29,0.68c-0.167-0.081-0.085-0.277-0.085-0.397l0.29-0.159l-0.205-0.401c0.29,0,0.665-0.436,0.79,0
	c0.206,0.481-0.375,0.914,0,1.353c-0.375,0.282,0.29,0.441,0.206,0.76c0.621-0.124,0.165-0.599,0.287-0.878h0.334
	c-0.081,0.159-0.291,0.279-0.206,0.477c0.371,0.401,0.581-0.118,0.993-0.077v0.127c0.025,0.019,0.052,0.036,0.088,0.069l-0.088,0.08
	v-0.148c-0.228-0.142-0.195,0.426-0.493,0.069l-0.129,0.362c-0.5-0.04-0.992,0.159-1.283-0.679c-0.25,0.121-0.706,0.556-0.294,0.873
	l0.294,0.083c-0.166,0.318-0.125,0.795,0.122,0.954c0.5,0.122,0.955,0.317,0.996-0.359l0.165,0.481
	c0.253-0.202,0.253-0.361,0.419-0.122c0.125,0.317,0.125,1.194,0.416,0.874c-0.043,0.162,0.04,0.4-0.125,0.48l0.207,0.2l0.29-0.279
	c0.703,0.516-0.747,1.192,0.291,1.588c0.662-0.314-0.416-0.476,0.206-0.754c0.332-0.595-0.581-0.992-0.206-1.429v-0.203
	c0.125,0.124,0.125,0.441,0.412,0.319c-0.042-0.434,0.625-0.795,0.083-1.154c-0.04,0.16-0.25,0.239-0.165,0.481
	c-0.331,0.274-0.746-0.242-0.706,0.354h-0.412v-0.634h0.703c0,0.079-0.042,0.237,0.084,0.281l0.496-0.481
	c0.5,0.12,0.167,0.399,0.5,0.676c-0.125-0.239-0.293,0.124-0.5,0.282c0.167,0.317,0.082,0.715,0.5,0.954
	c-0.165,0.079-0.044,0.237-0.084,0.357c-0.416,0.276-0.456,0.594-0.5,1.075c0.125-0.326,0.426-0.472,0.679-0.657
	c-0.172,0.241-0.246,0.591-0.096,0.737c0.125-0.044,0.125-0.204,0.125-0.282l0.207,0.202c0.29-0.158-0.207-0.282,0.085-0.481
	c0.371,0.481,0.33-0.594,0.701,0.199c-0.125,0-0.165-0.079-0.205-0.12c-0.126,0.041-0.085,0.199-0.085,0.278
	c0.165,0.204,0.165-0.035,0.29,0.204c-0.04-0.044-0.576-0.204-0.786,0v0.199h0.29c0.166,0.754-0.706,0.594-1.122,1.035
	c0.125,0.119,0.253,0.279,0.416,0.195c-0.291,0.638-0.666-0.357-0.787-0.195l-0.291,0.596c0.122,0.436-0.25-0.362-0.496-0.118
	c-0.338,0.118-0.173,0.436-0.213,0.673c-0.369-0.119-0.291-0.038-0.622,0.2c-0.371-0.437-0.29-0.676-0.867-0.555
	c0-0.121-0.044-0.159-0.125-0.199c-0.169,0.079-0.04,0.317-0.085,0.477c0.331,0.078,0.331,0.078,0.5,0.356h-0.415
	c-0.416-0.039,0.29-0.876-0.5-0.634c0.331-0.282-0.29-0.441-0.29-0.676c-0.177,0.339-0.695,0.125-0.592,0.465
	c-0.306-0.444-1.092-0.541-1.276-1.064c0.128,0.118,0.75,0.118,0.79,0.599c0.206-0.52,0-0.481,0.372-0.877L73.28,65.03
	c-0.015,0.094-0.073,0.189-0.122,0.279c0.015,0.011,0.022,0.028,0.041,0.038l-0.073,0.023c-0.06,0.118-0.082,0.235,0.073,0.339
	l-0.625-0.199l0.552-0.14c0.011-0.023,0.021-0.044,0.032-0.061c-0.304-0.286-0.11-1.141-0.661-0.914
	c-0.254-0.596-0.67-1.549-1.209-1.549h-0.291v0.195c0.041-0.079-0.992-0.236-0.912-0.874c0.416,0,0.041-0.397,0.291-0.556
	l-0.081-0.08l-0.416,0.277c0.247-0.197,0.372-0.396,0.416-0.678c-0.044,0.083,0.04,0.159,0.081,0.203
	C70.5,61.29,70.5,61.131,70.5,61.056l-0.416-0.4c-0.497,0.159,0.125,0.758-0.206,0.678c-0.544-0.159,0.331-0.758-0.371-0.877
	c-0.085,0.323-0.545-0.077-0.795-0.077c0.085-0.241-0.122-0.796-0.496-0.599l0.165-0.159c-0.246-0.599-1.122-0.361-1.073-1.075
	c0.327-0.279-0.294-0.317-0.294-0.557l-0.209,0.557c0.044-0.121-0.167-0.199-0.081-0.357l-0.426,0.109
	c-0.041,0.046-0.103,0.072-0.199,0.049l0.199-0.049c0.121-0.131,0.087-0.448,0.301-0.506c-0.621,0.278-1.246-0.476-1.867-0.954
	l-0.125,0.08c0.085,0.434-0.081-0.201-0.206-0.282l-0.165,0.599c-0.085-0.201-0.085-0.559-0.207-1.075
	c-0.25,0.079-0.415,0.476-0.209,0.678c-0.497,0.037-0.331,0.593-0.916,0.478c-0.081-0.041-0.122,0.035-0.165,0.079
	c-0.082,0.159,0.125,0.194,0.165,0.318c0.29-0.081,0.622-0.201,0.71-0.479c-0.088,0.354,0.33,0.596,0.206,1.033
	c-0.166,0.041-0.206-0.118-0.294-0.197l-0.118,0.119c0.659,0.412,0.431,0.547,0.6,0.946c0.007,0.003,0.015,0.003,0.021,0.011
	c-0.004,0.003-0.004,0.011-0.007,0.018c0.044,0.097,0.102,0.203,0.213,0.337l0.081-0.275c-0.041,0.517,0.084,0.675-0.21,1.23
	c-0.324-0.429-0.207-0.823-0.084-1.292c-0.004-0.007-0.008-0.018-0.015-0.028c-0.324-0.202-0.6,0.372-0.482,0.567v0.079
	c-0.198,0.03-0.198-0.122-0.225-0.28c-0.059-0.051-0.111-0.106-0.059-0.196c0.033,0.058,0.048,0.127,0.059,0.196
	c0.041,0.035,0.088,0.072,0.106,0.121c0.283-0.317-0.047-0.678-0.084-0.955c0,0.355-0.459,0.399-0.294,0.833
	c-0.103-0.305-0.551-0.17-0.714,0.021c0.019-0.029,0.03-0.058,0.012-0.096c-0.334-0.2-0.416,0.196-0.706,0.355l0.29,0.875
	l0.207-0.199c0.04,0.12-0.082,0.323,0.125,0.401c0.044-0.319,0.25-0.719,0.165-0.957c0.209,0.159,0.084,0.555,0.416,0.555
	l0.081-0.358v1.033h0.503l-0.503,0.083c0.457,0.557-0.04,1.712,0.835,2.228c-0.378,0.397,0.205,1.112,0.165,1.112
	c0.029,0.028,0.04,0.035,0.052,0.042c-0.132-0.097-0.688-0.466-0.714,0.155c0.448,0.041-0.128,0.877,0.497,0.957v0.478h0.29
	c-0.25,0.917,0.703,0.476,0.788,1.353c0.04-0.021,0.065-0.051,0.08-0.084v-0.314c0,0.09,0.045,0.221,0,0.314v0.162
	c-0.291,0.041-0.125-0.435-0.496-0.277c0.372,0.556-0.541,0.438-0.787,0.477c-0.088-0.277-0.253-0.635-0.585-0.754
	c0,0.237-0.165,0.477-0.125,0.833l-0.577,0.121v-0.2l-1,0.278l0.085-0.079c-0.125-0.041-0.996,0.554-1.081-0.2l-0.29,0.278
	c-0.538-0.199,0.125-0.715,0.088-0.954c-0.331-0.396-0.544-1.392-0.584-1.988l-0.497-1.236c0.205,0.041,0.497,0.279,0.702,0.08
	l-0.412-0.276c0.207-0.239,0.165-0.399-0.085-0.6c-0.372,0.2,0.292,0.479-0.205,0.479c0.04-0.159,0.205-1.274,0.787-1.591
	c-0.372-0.238-0.372,0.039-0.497-0.397c0.082-0.199-0.085-0.357-0.29-0.279h-0.291l0.167-0.396l0.125,0.118l0.205-0.198
	l-0.205-0.202l0.081,0.079c-0.121-0.354,0.456-0.278,0.125-0.636l-0.412,0.161c0.082-0.516,0.662-0.239,0.703-0.556
	c0.29,0.158,0.125,0.556,0.371,0.874c0.243-0.188,0.232-0.407,0.162-0.64l-0.036-0.035c0-0.032-0.004-0.072-0.008-0.109
	c-0.056-0.162-0.118-0.328-0.118-0.487c0.126,0,0.25,0.035,0.335-0.079V59.5l-0.122-0.075c-0.133,0.059-0.11,0.222-0.096,0.366
	c0.015,0.047,0.029,0.095,0.044,0.144l0.052,0.044c0.993-0.64-0.254-1.116,0.287-1.909l-0.5-0.357
	c0.048,0.396,0.335,0.595,0.126,1.112h-0.207c0.128-0.279-0.29-1.112,0.081-1.112l-0.081-0.124h0.081
	c-0.081-0.314-0.577-0.873-0.371-1.031c-0.788-0.199-0.537-1.153-0.993-1.629c0.536-0.123,0.08-0.44,0.496-0.679l-0.207-0.199
	l-0.084,0.119c-0.194-0.26,0.003-0.905-0.419-1.346v1.069h-0.063c-0.08-0.08-0.855-0.579-0.93,0.277
	c0.125-0.357,0.585,0.198,0.706-0.119v0.397l0.5-0.198c0,0.159-0.167,0.28-0.292,0.28l-0.708-0.082
	c-0.167-0.437-0.288,0.041-0.497-0.397c-0.75,0.358,0.33,0.675-0.291,1.072c0.044,0.398,0.25,0.719-0.125,0.957
	c-0.125,0-0.5,0.279-0.372,0.556c0.122,0.119-0.25,0.918-0.129,1.156c-0.08,0-0.246-0.044-0.286,0.08
	c-0.085,0.199,0.081,0.278,0.206,0.396c-0.125,0-0.25-0.039-0.291,0.08c0,0.119-0.04,0.242,0.085,0.319h0.206
	c0,0.078-0.041,0.118-0.125,0.159c0.875,0.197,0.456-0.755,0.831-1.236c-0.706-0.513,0.416-0.513-0.209-1.031
	c0.418-0.478,0.83,0.197,0.997-0.478c-0.042-0.118-0.207-0.118-0.288-0.118c-0.084-0.282,0.413-0.12,0.288-0.478l-0.413-0.079
	c0.457,0.041,0.291-0.4,0.413-0.556l0.5,0.08c-0.246,0.517-0.416,0.75,0,1.231l0.209-0.198c0,0.198,0.167,0.277,0.292,0.397
	c0.125,0.038,0.205-0.12,0.29-0.199c0,0.119,0.04,0.237-0.084,0.277l0.372,0.198l-0.497,0.119c0-0.119,0.084-0.317-0.08-0.396
	c-0.167-0.041-0.214,0.118-0.292,0.199c0.078-0.517-0.33-0.041-0.5-0.279l-0.209,0.158l0.209,0.198
	c-0.416-0.356-0.912-0.078-0.912,0.282c-0.209,0.595,0.416,1.232,0.207,1.827h0.29c0.033,0.292-0.342,0.112-0.415,0.144v-0.422
	c-0.167-0.119-0.582,0.278-0.582,0.556c-0.082-0.118-0.331,0.08-0.581,0.203v0.477c-0.125-0.119-0.621-0.119-0.621-0.477
	L54.565,59.5l0.375,0.4c0.081-0.041,0.124-0.12,0.124-0.199c0.332,0.317,0.207,0.556,0.578,0.874l0.125-0.12
	c-0.084,0.041-0.125,0.12-0.125,0.199h-0.206v-0.08l-0.497,0.158c0.206-0.037,0.537-0.596,0.124-0.636
	c-0.043-0.078-0.124-0.118-0.209-0.118v0.4l-0.084-0.121c-0.206,0.317-0.497,0.797,0,0.956c-0.29,0.318,0.169,0.834-0.412,0.795
	c-0.17-0.318,0.452-0.238,0.081-0.477l-0.5,0.556v-0.397l0.125,0.118l0.084-0.118l-0.581-0.561c0.457-0.273,0-0.634,0-0.951
	c-0.125-0.082-0.25-0.279-0.415-0.279c0.29,0.279-0.582,0.833,0,0.833c-0.625,0.397,0.415,0.838,0.209,1.075
	c-0.209,0.08-0.085,0.596-0.085,0.834c-0.125,0-0.165,0.081-0.209,0.124l-0.291-0.958l-0.706,0.558
	c0.463,0.038-0.092,0.41,0.279,0.404c0.053-0.029,0.097-0.039,0.097-0.003c-0.044,0.003-0.066,0.003-0.097,0.003
	c-0.125,0.069-0.311,0.279-0.194,0.473c0.041,0.158-0.456-1.314-0.706-0.397c0.25,0,0.21,0.117,0.21,0.397
	c-0.085,0-0.125-0.04-0.21-0.122c-0.04,0.082-0.121,0.122-0.081,0.2l0.081,0.12c0.21,0-0.286-0.041-0.165,0.159l0.165,0.199
	c-0.713-0.217-0.275,0.639-0.429,1.04c0.015,0.014,0.044,0.011,0.055,0.032l-0.122,0.08c0.029-0.028,0.048-0.072,0.067-0.111
	c-0.048-0.041-0.092-0.088-0.148-0.088l-0.213,0.199l-0.284-0.279c-0.047,0.121-0.213,0.08-0.293,0.08
	c0.04-0.118-0.125-0.198-0.21-0.276c-0.456,0.038-0.83-0.121-1.202-0.558c-0.25,0.398-0.666,0-0.997,0
	c-0.246-0.476-1.081,0.121-1.368-0.476c-0.871-0.717-1.826-1.233-2.698-1.83c0.831-1.115,1.787-2.272,2.865-2.945
	c0-0.12,0.043-0.241-0.085-0.319l0.207,0.199c0.29-0.08,0.125-1.47,0.875-0.833c-0.207-0.875,0.707-0.997,1.118-1.751l0.206,0.198
	l0.084-0.359c0.042,0.12,0.085,0.279,0.21,0.359c0.166-0.198,0-0.714,0.5-0.676c-0.044-0.119-0.209-0.079-0.293-0.079
	c-0.081-0.521,0.871-0.556,0.871-0.875c0.166,0.078,0.294-0.082,0.416-0.162l-0.287-0.198c0.872-0.237,0.452-0.954,1.368-0.753
	c-0.375-0.124,0-0.6,0.291-0.958c0.577-0.595,0.746-0.317,1.327-0.877v-0.273l0.165,0.194c0.332-0.079,0.21-0.317,0.21-0.592
	c0,0.116,0.04,0.155,0.122,0.196c0.415-0.239,0.666-1.114,1.29-0.755c0.123-0.041,0.082-0.199,0.082-0.279
	c0,0.08,0,0.238,0.125,0.279c0.497,0.159,0.04-0.556,0.372-0.397c0.291-0.317-0.206-0.839,0.496-0.758
	c-0.08-0.279,0.5-1.112-0.286-1.43c0.246-0.918-0.831-0.521-1.207-0.878v0.32c-0.036-0.122-0.206-0.122-0.287-0.122
	c-0.045-0.081,0.037-0.12,0.081-0.199c-0.044-0.041-0.081-0.12-0.166-0.079c-0.025,0.01-0.032,0.027-0.051,0.042
	c0.025-0.028,0.051-0.053,0.051-0.122c-0.25-0.12-0.581,0.081-0.831-0.199l0.125,0.079c0.125-0.038,0.085-0.196,0.085-0.276
	l-0.29-0.081l0.08-0.118l-0.165-0.199c-0.375,0.438-0.831,0.715-1.618,0.596c0.125-0.158,0.125-0.397,0.125-0.596h-0.335v0.199
	l-0.081-0.079c-0.205,0.118-0.205,0.317-0.084,0.476c-0.342-0.097-0.71-0.7-1.015-0.575l-0.188,0.178
	c0.059-0.104,0.121-0.151,0.188-0.178l0.021-0.021c-0.169-0.158-0.334-0.038-0.419-0.278c-0.456,0.16,0.085,0.517-0.08,0.677h-0.416
	c0.125-0.041,0.084-0.199,0.084-0.278l-0.168-0.199c-0.417,0.557-0.292,0.041-0.831,0.199l-0.165-0.399l-0.917,0.677l-0.412-0.957
	l-0.166,0.4l-0.208-0.198c-0.453,0.198,0,0.477,0,0.755c-0.166-0.041-0.207,0.118-0.288,0.198l0.081,0.079l-0.206-0.079
	c0.125,0,0.166-0.039,0.206-0.118c-0.041-0.398-0.246,0.118-0.411-0.161c-0.125,0.121-0.125,0.279-0.292,0.357
	c-0.084-0.079-0.084-0.916-0.503-0.953l-0.287,0.399c0.21,0.118,0.332,0.118,0.412,0.358c-0.165,0.079-0.202-0.121-0.331-0.161
	c-0.037,0.121-0.166,0.081-0.287,0.081c0.041-0.24,0.416-0.595-0.084-0.677h-0.125v0.478c-0.159-0.251-0.46-0.138-0.667,0
	c0.004,0,0.004,0,0.004,0l-0.209,0.199c0-0.03,0.084-0.12,0.205-0.199c-0.29-0.596-1.117,0.354-1.407-0.478
	c-0.291,0.24-0.25,0.716-0.71,0.677l-0.371-0.398c-0.166,0.875-0.993,0.358-1.493,0.479c-0.081,0.19-0.275,0.273-0.209,0.461
	c0.114-0.03,0.213-0.016,0.294,0.132l-0.294-0.118c0-0.003,0-0.007,0-0.014c-0.308,0.086-0.672,0.555-0.702-0.265l-0.706,0.397
	l0.125-0.118c-0.085-0.438-1.122-0.397-0.916-0.954c-0.081-0.158-0.291-0.038-0.206-0.278c-0.166-0.321,0.577-0.638-0.085-0.758
	c-0.412-0.118,0.041-0.435-0.125-0.476l0.125,0.08l0.085-0.08c-0.746-0.279-0.209-1.473-0.581-1.908
	c-0.04-0.438,0.621-0.16,0.872-0.397c1.493,0.118,2.945-0.522,4.481-0.557c0.876,0.317,1.123-0.238,1.91-0.083
	c-0.372,0.4,0.415,0.083,0.209,0.358c0.165-0.358,0.83,0.121,0.996-0.196c0.456,0.317,0.701-0.202,1.202,0.116
	c0.46,0.043,0.46,0.163,1.074-0.116c0.213,0.954,0.917-0.121,1.082-0.079l-0.082,0.396c0.913,0.833,1.082-1.392,2.078-0.201v-0.195
	l0.416,0.275c-0.129,0.042-0.334-0.08-0.416,0.121c0.166,0.357,0.618-0.038,0.828,0.08c-0.044-0.238-0.332-0.559-0.497-0.559
	l0.165-0.317c-0.791-0.042-0.54-1.113-0.578-1.592c-0.378,0.397-0.378-0.636-0.503-0.675c-0.412-0.161,0.045-0.838-0.496-0.596
	c-0.25-0.242-0.541-0.402-0.5-0.758c-0.415-0.279-0.871-0.556-0.993-0.953c-0.209-0.438,0.496-0.838-0.209-1.234
	c-0.246,0.2,0.084,0.396,0.125,0.555h-0.207v0.48c-0.213-0.358-0.625-0.599-0.625-1.035c0.081,0.159,0.293,0.079,0.412,0.079
	c0.048-0.12,0.088-0.319,0.088-0.557l-0.666-0.397c-0.165,0.238-0.287,0.556-0.496,0.198c-1-0.718-0.044-2.31-1.617-2.748
	c0-0.12,0-0.237,0.121-0.317c-0.205-0.476-0.537,0.197-0.827-0.159c0-0.478,0.58-0.478,0.827-0.874l2.99-1.234
	c0.415,0.356-1.206,1.031,0.083,1.031c0.538-0.317-0.29-1.468,0.788-1.309l0.29-0.317l0.416,0.793
	c0.209-0.356,0.416-0.396,0.209-0.873h-0.125c0.125-0.079,0.247-0.277,0.412-0.199c-0.08,0-0.165,0.039-0.206,0.12
	c0,0.079,0.041,0.118,0.125,0.159l0.665-0.557c0.122,0.357-0.043,0.557-0.165,1.032c0.165,0.238,0.537-0.437,0.581,0l0.081-0.079
	c0.416,0.717-0.743,1.116-0.081,1.71c0.081,0.04,0.166-0.039,0.203-0.079c-0.085,0.197-0.332,0.317,0,0.476
	c0.375-0.041,0-0.357,0.21-0.596l0.084,0.478c0.372-0.161,0.166-0.436,0.291-0.637c0.125,0,0.166-0.078,0.207-0.123l-0.497-0.194
	c0.081-0.082,0.246-0.124,0.206-0.282l-0.206-0.199l-0.084,0.12v-0.199c0.125,0.079,0.375,0.199,0.5,0.079
	c-0.21,0.12-0.085,0.323-0.125,0.481l0.125,0.118l0.371-0.678c0.085,0.319-0.415,0.52-0.084,0.877h0.209l-0.209,0.159
	c0.416,0.08,0,0.279,0.084,0.478c-0.125-0.04-0.206,0.118-0.29,0.198c-0.081,0.317,0.125,0.517,0.205,0.755
	c0.25-0.238,0.375-0.636,0.997-0.755c-0.166,0.278,0.169,0.635,0.584,0.476c0.331-0.276-0.21-0.555,0.122-0.834h0.29
	c0,0.279-0.29,0.399,0,0.637c0.041-0.041,0.125-0.079,0.084-0.159h0.21v0.159l0.287-0.079c-0.25,0.197,0.081,0.396,0.125,0.556
	l0.169-0.556v0.876c-0.294-0.042-0.626-0.679-0.875-0.32c-0.04,0.119,0.041,0.162,0.084,0.199h0.21c-0.128,0-0.584,0.042-0.419,0.4
	c0.581,0.557,0.625,0.595,1,1.032c-0.129-0.079-0.213-0.238-0.375-0.199l-0.125,0.12l0.415,0.479l-0.084,0.076
	c0.04,0.282,0.335,0.121,0.581,0.282l0.085-0.079c-0.666-0.045,0.04-0.679-0.166-0.957c0.163,0.195,0.29,0.165,0.489,0.657
	c0.004,0,0.012,0,0.019,0c0.213-0.275-0.095-0.582-0.136-0.855c0.21,0.077,0.375,0.476,0.291,0.951
	c-0.019-0.079-0.081-0.096-0.155-0.096c-0.007,0.006-0.004,0.014-0.011,0.021c-0.004-0.011-0.004-0.011-0.008-0.021
	c-0.069,0.003-0.14,0.021-0.199,0.021c-0.165,0.076-0.084,0.317-0.124,0.479h-0.291c-0.169,0.476,0.291,0.714,0.415,1.233
	l-0.415-0.479c-0.206,0.118-0.206,0.317-0.082,0.479c-0.043-0.043-0.124-0.12-0.209-0.083l-0.084,0.083l0.279,0.21
	c0.008-0.003,0.004-0.012,0.015-0.012l0.082,0.081l-0.097-0.069c-0.105,0.049-0.105,0.231,0.015,0.266l0.207,0.199l-0.125,0.081
	c0.081-0.159-0.082-0.239-0.206-0.358c-0.331,0.119-0.544,0.557-0.375,0.833c0.045,0.239,0.457-0.239,0.291,0.199
	c0.332-0.041,0.747-0.555,1.283-0.396c-0.08-0.278-0.04-0.754-0.205-0.958c0.287,0.434,0.691,0.09,0.985,0.007
	c-0.003-0.003,0-0.003,0-0.007h-0.07v-0.159h0.082c-0.023,0.052-0.015,0.104-0.012,0.159h0.012
	c-0.004,0.004-0.012,0.004-0.012,0.007c0.019,0.245,0.257,0.491,0.426,0.393c-0.04,0.041-0.081,0.121-0.206,0.08
	c-0.125-0.277-0.291-0.04-0.5,0v0.199c0.169-0.239,0.5,0.158,0.706,0.119v0.635c-0.165-0.199-0.415-0.317-0.706-0.279
	c-0.125,0.041-0.084,0.199-0.084,0.279c0.253,0.079,0.129,0.079,0.293,0.317h-0.293c0-0.118,0-0.238-0.125-0.317
	c-0.163,0-0.247,0.199-0.372,0.317c0-0.118,0-0.238-0.125-0.317c-0.25,0.039-0.291,0.317-0.291,0.476l0.912,0.124h0.084v0.199
	h-0.084c0-0.121-0.041-0.164-0.125-0.199h-0.081c-0.21,0.516,0.666,0.433,0.79,0.833l0.206-0.279
	c0.125,0.042,0.085,0.201,0.085,0.279c-0.166,0-0.375,0.08-0.5-0.079c-0.207,0.158,0,0.436,0.125,0.476l-0.125-0.08
	c-0.167,0.12-0.207,0.279-0.082,0.478l-0.293-0.675c-0.125,0.476-0.288,0.796,0.293,1.035l0.207-0.201
	c-0.167,0.281,0.125,0.397,0.29,0.797c0.497-0.039-0.081-0.477,0.497-0.317l0.088,0.317h-0.088
	c-0.246,0.719,0.956,0.079,0.915,0.755l0.496-0.198v0.559c-0.125,0-0.246,0-0.33,0.116c0.205,0,0.415,0.362,0.621,0.08
	c0.088-0.116,0.253-0.196,0.205-0.358l-0.117-0.12c0.497,0.238-0.213,0.957,0.618,0.957l0.29-0.277
	c-0.459-0.159,0.125-0.397-0.21-0.559c-0.416-0.359-0.036-0.795-0.08-1.354c-0.122-0.116-0.375,0.043-0.501,0.202l0.085,0.277
	c-0.29-0.079,0.041-0.754-0.497-1.035l0.577-0.199l-0.166-0.279c0.085,0,0.125-0.079,0.166-0.118
	c-0.04,0.04-0.117,0.118-0.081,0.198c0.081,0.079,0.165,0.24,0.294,0.199l0.122-0.121l0.08,0.199l-0.581,0.2
	c0.125,0.159,0.581,0.52,0.791,0.2v-0.28c0.725,0.208-0.07,0.542-0.004,0.751l-0.121-0.112c-0.207,0.158,0,0.436,0.125,0.476
	l-0.125-0.08c-0.25,0.161,0.085,0.32,0.125,0.398c-0.125-0.04-0.165,0.039-0.21,0.08v0.277c0.294,0.238,0.17-0.317,0.5-0.277
	l0.291-0.398l-0.081-0.08c0.081-0.277,0.331-0.079,0.581-0.277c-0.746-0.119,0.165-0.556,0-1.077l0.121,0.121
	c0.125-0.041,0.084-0.199,0.084-0.279c-0.165-0.317-0.29-0.079-0.5,0v0.279c-0.08-0.041-0.165,0.041-0.205,0.079
	c0.165-0.357,0.541-0.794,0.29-1.233l0.331,0.083c-0.081-0.159,0.044-0.6,0.294-0.64c-0.044-0.08-0.125-0.118-0.21-0.118
	c-0.084-0.239,0.166-0.398,0.292-0.556l0.5,0.199c0.122-0.12,0.122-0.279,0-0.397h-0.291c0.166-0.161,0.081-0.438,0.081-0.675
	l-0.29-0.203l0.125-0.076c-0.207,0.397,0.621-0.12,0.497,0.556c0.125,0.079,0.165-0.118,0.29-0.159
	c-0.125-0.162-0.125-0.397-0.125-0.6c0,0.119,0.085,0.159,0.125,0.203c0-0.52,0.831-0.878,0.085-1.354
	c-0.125,0.08-0.085,0.198-0.085,0.317c-0.165,0-0.247-0.197-0.412-0.119h-0.084v-0.48h0.084v0.121
	c0.247,0.282,0.122-0.358,0.287,0.083c0.174-0.521,1-0.997,0.419-1.354c0.167-0.238,0.084-0.556,0.084-0.838l0.207,0.559
	c0.622-0.242,0-0.516,0-0.838l-0.088,0.08v-1.034c0.129,0.042,0.213-0.118,0.294-0.197L63.407,30.1
	c0.082,0.162,0.283,0.082,0.413,0.082c0.165-0.124,0.084-0.361,0.084-0.56c0.081,0.041,0.125,0.119,0.203,0.079
	c0.129-0.039,0.129-0.159,0.129-0.277c0.496,0.039-0.207,0.317,0.165,0.476c0.291-0.199,0.331-0.555,0.125-0.833
	c0.413-0.476,0.828-1.116,0.703-1.83c-0.077-0.121-0.206-0.081-0.331-0.081c0.085-0.397-0.08-0.516,0.331-0.797L65.021,26.2
	c0.081-0.12,0.166,0.159,0.497,0c-0.037,0.08,0.044,0.118,0.084,0.159c-0.122,0.04-0.331-0.041-0.375,0.124l0.375,0.277
	c-0.084-0.043-0.122,0.041-0.209,0.075v0.322c0.125-0.04,0.706,0.119,0.706-0.322l0.129,0.124c0.411-0.476-0.375-0.836-0.129-1.233
	l-0.287,0.077c0.084,0.516-0.085-0.356-0.21-0.077v-0.12h-0.375c0-0.079-0.077-0.12-0.125-0.2h0.291c0-0.233,0.235-0.469-0.066-0.74
	c-0.048-0.028-0.081-0.046-0.011-0.014c0.004,0.003,0.004,0.011,0.011,0.014c0.073,0.048,0.225,0.135,0.276,0.186
	c0.335-0.163-0.122-0.759,0.294-0.878v0.12l1.199,0.198l-0.206,0.159c0.125,0.081,0.166,0.239,0.331,0.202l0.166-0.678
	c0.541,0.6,0.702-0.193,1.327,0.203c-0.206,0.076-0.082,0.273-0.122,0.397l0.413-0.124c-0.041,0.282,0.088,0.599-0.117,0.798
	c0.076,0.12,0.205,0.08,0.33,0.08l0.081-1.152l0.912,0.476c-0.419,0.037-0.29,0.478-0.419,0.676l0.088,0.078
	c0.291-0.357,0.331-0.957,0.993-0.754v0.121c0.165,0.237,0.331-0.4,0.416,0.08c-0.541,0.396,0.209,0.554,0.084,0.874l0.209-0.398
	h0.125v0.753h-0.125v-0.278c-0.709-0.276-0.084,0.759-0.79,0.877l0.081,0.954c0.212-0.237,0.416-0.199,0.625,0.083l-0.294,1.034
	c0.128-0.24-0.206-0.24-0.331-0.357c-0.041,0.316-0.246,0.079-0.372,0.079c-0.166-0.038-0.206,0.12-0.291,0.199
	c-0.04,0.08,0.041,0.159,0.084,0.198l-0.416,0.199c0.206,0.237,0.456,0.317,0.703,0.08c-0.166,0.317,0.503,0.199,0,0.476
	l-0.287,0.079c0.04,0.163,0.121,0.323,0.081,0.481c-0.125,0.08-0.497,0.08-0.662,0.397c0.125,0.199,0.702,0.041,0.581,0
	c-0.04,0.073,0.025,0.141,0.07,0.184c0.008,0,0.015,0,0.022,0l0.319-0.387c-0.08-0.035-0.125-0.076-0.125-0.194l0.621,0.596
	c-0.136-0.106-0.368,0.028-0.537,0.193c0.021-0.027,0.04-0.064,0.04-0.115c-0.111-0.054-0.22-0.079-0.319-0.094l-0.012,0.015
	c-0.003-0.003-0.007-0.012-0.011-0.015c-0.302-0.036-0.541,0.081-0.755,0.281c0.229-0.332-0.065-0.733,0.104-1.021
	c-0.456,0-0.621,0.397-0.621,0.754l0.125,0.079l-0.212-0.079c-0.373,0.158,0.331,0.555-0.206,0.476v0.476
	c-0.04-0.038-0.085-0.118-0.207-0.118c-0.125-0.199-0.209-0.595-0.29-1.113c-0.04-0.123,0.081-0.317-0.084-0.399
	c-0.165,0.399-0.497,0.996-0.205,1.353l0.29,0.159c-0.166,0.238-0.04,0.956-0.416,1.076c0.416,0.199,0.085,0.516,0.332,0.833
	c0-0.003,0.004-0.003,0.004-0.007c0.084-0.156,0.206-0.314,0.161-0.549l0.209,0.477l0.295-0.08c0.205,0.438-0.42,0.397-0.505,0.64
	v-0.56c-0.069-0.022-0.113,0.018-0.161,0.072c0,0.003-0.004,0.007-0.004,0.007l0,0c-0.036,0.04-0.073,0.086-0.129,0.12l-0.076-0.12
	c-0.126,0.12-0.126,0.317-0.292,0.4l0.497,0.274l-0.497,0.204c0.04-0.159-0.125-0.279-0.209-0.397
	c-0.746,0.314,0.166,0.674-0.497,1.15l0.206,0.2l-0.125,0.079c-0.582,0,0.044-1.033-0.582-0.756c0,0.477,0.045-0.198-0.205-0.198
	c0.165-0.041,0.084-0.237,0.084-0.358c0.121,0,0.246,0,0.331-0.118c0.041-0.124-0.125-0.164-0.21-0.282
	c-0.165,0.118-0.415,0.118-0.617,0.118c-0.125,0.282-0.669,0.64-0.169,0.957c-0.165-0.079-0.209,0.12-0.334,0.158l0.419,0.399
	c-0.085,0-0.25,0.039-0.294-0.082c-0.165,0.042-0.08,0.241-0.125,0.358c0.088,0.159,0.291,0.083,0.419,0.119l0.205-0.316
	c0.21-0.12,0.332,0.559,0.581,0.197v0.541l0.125-0.06l-0.125,0.277V36.17l-0.702,0.336c0.081-0.04,0.121-0.119,0.121-0.199
	c-0.04-0.038-0.121-0.118-0.205-0.079c-0.419,0.159-0.085,0.396-0.085,0.636c0.169-0.278,0.372,0.589,0.578,0.003
	c0.007-0.058,0.022-0.092,0.003-0.003c0,0.003,0,0.003-0.003,0.003c-0.007,0.075-0.007,0.194,0.088,0.194l0.496-0.476l-0.084,0.119
	c0.269,0.993-0.791,1.042-1.003,1.638c0.04,0.158-0.023,0.365,0.011,0.55c-0.085-0.235-0.063-0.405-0.011-0.55
	c-0.016-0.046-0.034-0.09-0.074-0.129l0.085,0.083c-0.085-0.242,0.331-0.521-0.085-0.758c-0.831,0.356,0.372,1.274-0.706,1.433
	c-0.165,0.356,0.294,0.276,0.294,0.596h-0.213V39.37h-0.286c-0.085,0.279,0.537,0.521,0.786,0.755l0.125-0.077l0.372,1.592
	c0.666-0.043-0.328-1.233,0.706-0.957c-0.167-0.118,0.334-0.4-0.081-0.559l0.165-0.196c0,0.12,0.081,0.159,0.125,0.196h0.206
	c-0.081,0.043-0.125,0.083-0.125,0.202l0.125,0.08c0.416-0.199,0.335-0.599,0.5-0.958l-0.334-0.079
	c0.169-0.041,0.334-0.079,0.5-0.199c-0.165-0.118-0.412-0.158-0.666-0.198c0.254-0.199,0.792-0.079,0.792,0.276v0.121
	c0.124,0.079,0.455-0.121,0.58-0.279c-0.375-0.238-0.043-0.597-0.29-0.952c0.29-0.121,0.747,0.754,0.791,0
	c-0.379-0.083,0.037-0.041-0.205-0.323V37.54c0.076,0.039,0.742-0.04,0.496,0.4c0.077,0.035,0.125,0.116,0.205,0.079
	c0.291,0.037,0.746-0.123,1.203-0.479l0.081,0.118c0.212-0.238,0.625-0.476,0.625-0.873l0.209,0.476
	c0.247-0.101,0.744-0.412,0.714-0.646c0.025,0.026,0.051,0.055,0.077,0.091l0.368-0.2c0.044,0.081-0.037,0.119-0.085,0.2
	l0.294,0.278c0.25,0,0.206-0.278,0.291-0.397c-0.125-0.081-0.372,0.119-0.291-0.279l0.125-0.079l-0.125-0.118
	c0.375,0.237,0.375-0.322,0.706-0.481c-0.044,0.119,0.042,0.159,0.082,0.203c0.125-0.12,0.29-0.203,0.209-0.4
	c0,0.121,0.04,0.158,0.121,0.197c0.084,0.041,0.125-0.039,0.169-0.076l0.122,0.076c0.21-0.118,0.21-0.317,0.085-0.477
	c0.537-0.396,0.79,0.04,1.283-0.357l-0.078-0.119l0.788-0.198c0.043,0.121-0.082,0.317,0.121,0.397
	c0.128,0.041,0.165-0.118,0.291-0.199c-0.162-0.595-0.493-0.639-0.125-1.234l0.125,0.479c0.169-0.121,0.375-0.083,0.5,0.081
	l0.209-0.164c-0.581-0.436-0.043-0.197-0.334-0.675c0.25-0.118,0.375,0.318,0.5,0.081l-0.084,0.594h0.415v-0.793l0.291,0.199
	c0-0.199,0.291-0.596,0.5-0.478c0.332,0.317,0.457-0.242,0.868-0.199v-0.559l0.125,0.08l0.291-0.279
	c-0.041,0.12,0.041,0.159,0.084,0.2c0.452-0.2,0.332-0.516,0.913-0.397c0.746,0.197,0.334,1.037,1.203,0.878
	c-0.125,0.714,0.665-0.202,0.375,0.556c0.291,0.397,0.25,0,0.5,0.397l0.121-0.08c0.504-0.238-0.246,1.433,0.504,0.476
	c-0.17,0.199-0.049,0.599-0.129,0.957l0.706,0.357c-0.537-0.079-0.372,0.239-0.706,0.755c0.08,0.122,0.205,0.122,0.334,0.122
	c0.166-0.122,0.038-0.317,0.081-0.477c0,0.354,0.332,0.354,0.21,0.754l-0.625,0.08c-0.041,0.237-0.041-0.159-0.292-0.159
	c-0.496,0.159-0.25,0.954-0.205,1.311c-0.416-0.239-0.5,0.321-0.875,0c0.044,0.797-0.288,1.076-0.787,1.354l0.084-0.12l-0.21-0.158
	c-0.08-0.438,1.122-0.317,0.417-0.877l-0.699,0.667l0.078,0.089l-0.085-0.079l0.007-0.011l-0.088-0.107l0.291-0.279l-0.416-0.479
	c-0.206,0.118-0.206,0.321-0.085,0.479v0.476h-0.12c0.04-0.079-0.049-0.121-0.085-0.196c-0.246,0.118-0.209,0.356-0.209,0.596
	c0.246-0.319,0.459,0.119,0.5,0.476l-0.5-0.476l-0.085,0.079l-0.206-0.199c-0.081,0.199-0.291,0.08-0.416,0.12
	c-0.122-0.239,0.585-0.319,0.209-0.596h-0.209c0-0.083,0.044-0.242-0.08-0.279c-0.417,0.239-0.042,0.755-0.292,1.072l-0.497-0.476
	c-0.25,0.118,0,0.397,0.081,0.476c-0.121,0.12-0.5,0.04-0.371,0.357c0.041,0.04,0.081,0.12,0.165,0.12
	c0.206-0.199,0.085-0.199,0.332-0.12l-0.207,0.2l0.207,0.2l-0.706-0.122c-0.166,0.201,0.166,0.321,0.081,0.48
	c0.25-0.317,0.334,0.04,0.71-0.083c-0.085,0.123-0.417,0.123-0.292,0.4l-0.209-0.198c-0.081,0.239-0.416,0.438-0.291,0.755
	l-0.125,0.48v-0.203c-0.662-0.356-0.33,0.72-0.871,0.76l-0.412-0.282c-0.25,0.242-0.291,0.519-0.378,0.758
	c-0.332-0.159,0.253-0.279,0-0.476c-0.497,0.196-0.121-0.522-0.622-0.362c0.165,0.362-0.288,0.718-0.288,1.155
	c0.207,0.279,0.413,0.159,0.578,0.476l0.21-0.197c0.286,0.397,0.286-0.037,0.706,0c0.04,0.717,0.581,0.122,0.911,0.678
	c0.125,0.159,0.957,0.08,1.493,0.08c0,0.476,0.665,0.239,1.166,0.476l0.12-0.279c-0.169,0.676,0.748,0.399,0.998,0.478
	c-0.041,0.118,0.125,0.198,0.209,0.276c0.452-0.634,0.581,0.32,0.871,0.478c0.207-0.08,0.372-0.279,0.621-0.199
	c0.167,0.08,0.042,0.357,0.295,0.282c0.118-0.521,0.076,0.438,0.371,0.119c0.703-0.044,0.872,0.078,1.408,0.078l0.081-0.078
	c-0.206,0.477-0.166,0.674,0.21,1.031l0.205-0.196c-0.076-0.358-0.286,0-0.205-0.479h0.705c-0.08,0-0.165,0.08-0.205,0.121
	c0.25,0.396,1.118-0.08,1.202,0.755c0.294,0.119,0.746-0.16,0.911,0.399c0.126-0.082,0.084-0.203,0.084-0.32h0.207l-0.122,0.32
	c0.453,0,0.913-0.082,1.328,0l-0.415,0.159l0.415,0.399l-0.21,0.194c0.045,0.044,0.082,0.124,0.21,0.083l0.165-0.198l0.206,0.198
	l0.125-0.083l-0.412-0.476c0.166-0.517,0.412,0.476,0.578-0.117c0.209,0.16-0.412,0.676,0.209,0.593v-0.476
	c0.526-0.065,0.519,0.577,0.633,0.848l-0.008-0.011c-0.379,0.556,0.703,0.676,0.165,1.155c0.413,0.199,0.166,0.437,0.121,0.596
	h-0.121l0.121,1.034c-0.04-0.042-0.121-0.121-0.205-0.081c0.04,0.238,0,0.635,0.29,0.838c0.04,0.237,0-0.204-0.206-0.08
	l-0.165,0.833c0.121-0.396-0.585-0.317-0.71-0.357l0.085-0.119l-0.5-0.079h0.125c-0.081-0.163,0.166-0.64-0.206-0.754l-0.29,0.194
	c0.206,0.158,0.25,0.52,0.084,0.837c-0.212,0.079-0.415-0.159-0.58,0.199h0.286c-0.04,0.561-0.331-0.397-0.5,0.199l-0.286-1.077
	L88.78,52.07c-0.021-0.13-0.309-0.409-0.147-0.683c-0.412,0.08-0.37,0.513-0.499,0.754c-0.368,0.476,0.499,0.08,0.499,0.676h-0.702
	v-0.08h-0.209c0.541-0.279,0.209-0.837,0.499-1.351c-0.205-0.159-0.455,0.08-0.708-0.202c-0.622,0.555,0.125,0.798-0.372,1.354
	c-0.331-0.596-1.081,0.361-1.497-0.08h-0.411l0.081-0.119c-0.416,0.037-0.514-0.708-0.856-0.786l-0.222,0.028
	c0.085-0.042,0.154-0.042,0.222-0.028l0.36-0.051c0.077-0.145-0.085-0.191-0.15-0.292c-0.049-0.014-0.078-0.025-0.016-0.025
	c0.004,0.011,0.012,0.018,0.016,0.025c0.088,0.026,0.25,0.076,0.276,0.177c-0.085,0.115-0.25,0.159-0.207,0.273
	c0.332,0.045,0.537-0.035,0.993-0.158c0.041-0.274-0.085-0.556-0.416-0.793c-0.121,0.201-0.29,0.237-0.496,0.201
	c0.125-0.122,0.125-0.36,0.125-0.559l0.081,0.079c-0.413-0.396,0.915-0.357,0-0.556l-0.207,0.198c-0.166-0.198,0-0.917-0.497-0.476
	c-0.166,0.199,0,0.795,0.331,0.634c0.126,0.319-0.205,0.596-0.496,0.479c-0.081,0.11-0.081,0.386,0.052,0.554
	c0.036-0.021,0.072-0.044,0.113-0.079l-0.085,0.124c-0.014-0.014-0.018-0.034-0.028-0.045c-0.342,0.197-0.549-0.151-0.883-0.079
	l0.205-0.159l-0.29-0.316l0.206-0.159l-0.621-0.478l-0.092,0.089c0.019-0.024,0.029-0.052,0.011-0.089
	c-0.129-0.198-0.293-0.239-0.5-0.198c-0.21,0.08,0.168,0.278-0.21,0.278c0-0.198,0.335-0.356,0.21-0.675l-0.082-0.08l-0.029,0.018
	c-0.059,0.16-0.15,0.303-0.1,0.062l0.1-0.062c0.037-0.101,0.059-0.201,0.029-0.218c0.375-0.159,0-0.398,0-0.557l-0.334-0.318
	c-0.125,0.318,0.456,0.716,0,1.076l-0.081-0.122c-0.32,0.35,0.169,0.769,0.275,1.12c0.056,0,0.104-0.009,0.14-0.044l-0.129,0.079
	c-0.004-0.011-0.011-0.021-0.011-0.035c-0.121,0-0.272-0.081-0.36-0.165l0.166-0.158c-0.125-0.317-0.292-0.08-0.496,0
	c0.04,0.12-0.041,0.279,0.125,0.357H81.247z M77.762,61.056l-0.207,0.158l-0.21-0.276C77.431,61.096,77.637,61.016,77.762,61.056
	 M75.563,58.826c0.496-0.081,0.661,0.514,0.915,0.479h-0.5C76.059,59.146,75.85,58.864,75.563,58.826 M75.688,59.781l-0.125,0.317
	C75.482,59.86,75.482,59.979,75.688,59.781 M75.482,57.396l-0.125,0.397v-0.476l0.331,0.197L75.482,57.396z M74.482,56.755
	c0.419-0.675-0.787-1.547,0.375-1.547c-0.125,0.394,0.084,0.556,0.331,1.072C74.607,56.319,74.981,56.559,74.482,56.755
	 M74.981,56.838v0.196c-0.125,0-0.25,0-0.29-0.116L74.981,56.838z M73.832,56.291c-0.027-0.043-0.067-0.094-0.136-0.13
	c-0.416,0.158-0.371,0.476-0.831,0.199l-0.291-0.478l0.625,0.556l0.166-0.158c-0.291-0.238,0.206-0.119,0.125-0.398l0.206-0.202
	l0.166,0.202C73.61,56.022,73.761,56.132,73.832,56.291 M73.861,56.359c-0.004,0.014,0,0.01,0,0.021
	c-0.004-0.018-0.008-0.035-0.015-0.058C73.849,56.336,73.857,56.349,73.861,56.359 M73.57,56.559l-0.081,0.28v-0.202L73.57,56.559z
	 M72.559,55.343c-0.069,0.149-0.091,0.319-0.062,0.063L72.559,55.343c0.048-0.107,0.121-0.204,0.221-0.135v0.198
	c-0.04-0.04-0.08-0.124-0.206-0.08L72.559,55.343z M71.871,54.648l0.412-0.279c0.125,0.12,0.085,0.357,0.085,0.561
	c-0.125,0.076-0.291,0.278-0.375,0.076c-0.041-0.121,0.125-0.156,0.209-0.279C72.118,54.609,71.993,54.648,71.871,54.648
	 M70.706,53.894c0.636-0.26,0.703,0.303,0.813,0.733c-0.036-0.062-0.077-0.123-0.146-0.178l-0.288,0.481
	C70.459,54.85,70.747,54.171,70.706,53.894 M70.084,50.551l0.291,0.159v0.201L70.084,50.551z M70.294,51.661h-0.084v-0.355h0.084
	V51.661z M70.209,53.1l0.022,0.083c0.162,0.1,0.655,0.238,0.144,0.512l-0.144-0.512C70.184,53.153,70.162,53.125,70.209,53.1
	 M69.489,53.294h-0.485c0.044-0.035,0.125-0.077,0.088-0.194c-0.044-0.123-0.205-0.081-0.294-0.081l0.294-0.4l-0.379-0.357
	c0.21,0.08,0.503,0.239,0.379,0.675l-0.088,0.083C69.334,53.118,69.452,53.204,69.489,53.294h0.019C69.5,53.297,69.5,53.3,69.5,53.3
	c0.063,0.162-0.103,0.348,0.213,0.672l-0.497-0.199c0.078-0.159,0.081-0.349,0.284-0.473C69.493,53.3,69.493,53.297,69.489,53.294
	 M68.012,50.911c0.37,0,0.455,0.398,0.701,0.592c-0.165,0.123-0.371,0-0.496,0.158C68.136,51.546,68.382,50.947,68.012,50.911
	 M68.088,49.197c0.254-0.438,0.916,0.079,0.71,0.4c0.04-0.12-0.04-0.162-0.085-0.2c-0.206,0.08-0.082,0.24-0.122,0.358l-0.503-0.158
	l0.294-0.322L68.088,49.197z M68.221,48.388c0.021,0.08,0.029,0.162-0.004,0.252C68.177,48.661,68.217,48.522,68.221,48.388
	 M69.297,51.107h0.085v0.277h-0.085V51.107z M69.588,52.738h0.125v0.28C69.508,52.856,69.508,52.936,69.588,52.738 M69.588,51.107
	c0.166-0.042,0.203,0.122,0.291,0.202l-0.088,0.476L69.588,51.107z M72.287,64.589c0.181,0.138,0.378,0.365,0.493,0.564
	c-0.08-0.043-0.165,0.036-0.206,0.08C72.604,65.006,72.463,64.738,72.287,64.589 M63.904,62.564v0.558
	C63.904,62.963,63.525,62.725,63.904,62.564 M63.407,62.088c0.118-0.12,0.037-0.397,0.332-0.279
	C63.86,62.048,63.525,62.009,63.407,62.088 M62.118,60.18h-0.082v-0.399h0.082V60.18z M58.631,57.034
	c0.084,0.159,0.292,0.083,0.416,0.083l-0.207,0.278L58.631,57.034z M59.419,58.745h0.125v0.278h-0.125V58.745z M53.775,47.007
	c0.062-0.166,0.271-0.07,0.4-0.111c-0.058,0.108,0.008,0.276-0.025,0.391L53.775,47.007z M70.654,33.279
	c0.118,0.048,0.172,0.011,0.136,0.242C70.757,33.506,70.698,33.399,70.654,33.279c-0.022-0.01-0.04-0.018-0.073-0.035l0.044-0.069
	c-0.038-0.137-0.031-0.271,0.08-0.289c0.166-0.199,0.041-0.558,0.378-0.599l-0.036-0.08h-0.052v-0.119l0.052,0.119h0.324
	l-0.169,0.201l0.294,0.081c-0.372-0.161-0.247,0.435-0.5,0l-0.371,0.686C70.632,33.21,70.643,33.244,70.654,33.279 M71.084,31.333
	c-0.378,0.438-0.709-0.198-0.875,0.199c-0.25-0.279,0.125-0.12,0.084-0.397c0.085-0.054,0.247-0.058,0.342-0.13
	c-0.015,0.018-0.042,0.032-0.055,0.05C70.5,31.611,70.996,31.016,71.084,31.333 M69.713,36.586l0.078,0.119l-0.078,0.08
	l-0.205-0.557c0.121,0.041,0.205-0.118,0.283-0.199l-0.078-0.4c0.413,0.083-0.125,0.241,0.166,0.4
	C69.508,36.229,69.838,36.307,69.713,36.586 M68.887,36.506v0.081c0.242-0.121,0.33,0.038,0.621,0.278
	c-0.125,0-0.173,0.079-0.21,0.119C69.508,36.666,68.713,37.024,68.887,36.506 M68.382,35.748c-0.294-0.357,0.167-0.357,0.209-0.674
	c0.21-0.203,0.593,0.018,0.685-0.268l-0.06,0.626c-0.088-0.041-0.125-0.12-0.212-0.079C68.758,35.832,68.631,35.271,68.382,35.748
	 M68.713,36.706v0.952C68.548,37.5,68.548,36.745,68.713,36.706 M68.382,37.738l-0.37-0.08l0.076-0.674
	C68.261,37.062,68.261,37.464,68.382,37.738 M69.297,35.832v0.279h-0.081L69.297,35.832z M69.383,32.207l-0.379-0.199l0.293-0.279
	l0.21,0.199l-0.21,0.16L69.383,32.207z M69.216,31.532l0.081-0.397l0.085,0.118c0.04-0.024,0.065-0.051,0.098-0.079
	C69.39,31.282,69.297,31.405,69.216,31.532 M68.591,31.928c0.17,0.207,0.268,0.351,0.295,0.517c0.051,0.122,0.051,0.26-0.089,0.441
	c0.089-0.186,0.106-0.319,0.089-0.441C68.798,32.247,68.566,32.101,68.591,31.928 M67.22,38.773l-0.415-0.079
	c0.581-0.596-0.292-0.358,0-0.957c-0.041-0.04,0.044,0.401,0.29,0.401l0.125,0.076l0.089-0.076l-0.294,0.276
	C67.014,38.853,67.309,38.298,67.22,38.773 M66.896,36.776c0.096,0.034,0.232-0.021,0.323,0.009l0.089-0.199
	c0,0.119-0.048,0.237,0.077,0.278C67.249,37.096,67.055,36.914,66.896,36.776 M67.309,35.907c0.202,0.241,0.537,0.48,0.412,0.798
	L67.309,35.907z M66.514,39.249c-0.371-0.118-0.25,0.279-0.415,0.399v-0.676l0.129,0.118l0.081-0.317
	C66.393,38.973,66.599,39.052,66.514,39.249 M79.959,40.406c-0.176-0.072-0.208-0.199-0.198-0.34
	c-0.045-0.032-0.037-0.119,0.044-0.276c0.029-0.155,0.033-0.291-0.136-0.342l0.375-0.357l0.206,0.478l0.081-0.072
	c-0.187,0.252,0.041,0.504-0.496,0.231c-0.019,0.029-0.019,0.04-0.029,0.063c-0.019,0.092-0.036,0.185-0.044,0.276
	C79.912,40.179,80.516,39.845,79.959,40.406 M92.291,84.467c-1.15,1.431-2.846,1.794-5.036,1.08
	c-0.735-0.202-1.356-0.473-1.898-0.798c-0.051-0.379-0.125-0.787-0.264-1.237c0,0-0.346-1.908-1.103-3.713
	c-1.099-2.602-2.89-2.974-2.479-3.377c0.515-0.509,2.548,0.772,3.875,3.363c1.633,3.207,5.015,4.062,7.147,4.275
	C92.461,84.218,92.376,84.359,92.291,84.467 M106.899,81.741c-0.828,0.668-1.835,0.943-2.633,1.04
	c-2.493,0.018-4.107-0.963-5.074-1.547l-0.444-0.261c-0.828-0.537-1.468-1.266-1.971-2.147c-0.037-0.167-0.06-0.271-0.06-0.271
	s0.07-1.513,0.354-2.794c0.221-0.978,1.673-3.933,2.092-3.646c0.596,0.413-1.062,2.325-0.815,4.539
	C98.81,80.79,103.41,81.672,106.899,81.741"/>
<path fill="#00936F" d="M123.65,109.51c-0.492,0.917,0.103,2.136,1.334,2.722c1.229,0.589,2.622,0.326,3.113-0.585
	c0.489-0.921-0.109-2.14-1.337-2.728C125.532,108.333,124.139,108.595,123.65,109.51"/>
<path fill="#FFFFFF" d="M125.965,110.692c-0.021,0.437,0.398,0.811,0.938,0.836c0.541,0.023,0.994-0.316,1.02-0.752
	c0.019-0.437-0.401-0.812-0.939-0.836C126.44,109.918,125.984,110.255,125.965,110.692"/>
</svg>
